<ttFont>
<head>
    <!-- Most of this table will be recalculated by the compiler -->
    <tableVersion value="1.0"/>
    <fontRevision value="1.003"/>
    <checkSumAdjustment value="0x8c158cd"/>
    <magicNumber value="0x5f0f3cf5"/>
    <flags value="00000000 00000011"/>
    <unitsPerEm value="1000"/>
    <created value="Mon Aug 22 07:00:39 2022"/>
    <modified value="Wed Sep 21 08:51:29 2022"/>
    <xMin value="-43"/>
    <yMin value="-380"/>
    <xMax value="1039"/>
    <yMax value="1263"/>
    <macStyle value="00000000 00000000"/>
    <lowestRecPPEM value="6"/>
    <fontDirectionHint value="2"/>
    <indexToLocFormat value="0"/>
    <glyphDataFormat value="0"/>
  </head>
    <TTGlyph name="A" xMin="43" yMin="-50" xMax="520" yMax="935">
      <component glyphName="glyph00043" x="0" y="0" flags="0x204"/>
      <component glyphName="glyph00045" x="0" y="0" flags="0x4"/>
      <component glyphName="glyph00046" x="0" y="0" flags="0x4"/>
      <component glyphName="glyph00047" x="0" y="0" flags="0x4"/>
      <component glyphName="glyph00048" x="0" y="0" flags="0x4"/>
    </TTGlyph>
    <TTGlyph name="B" xMin="43" yMin="-50" xMax="528" yMax="940">
      <component glyphName="glyph00049" x="0" y="0" flags="0x204"/>
      <component glyphName="glyph00051" x="0" y="0" flags="0x4"/>
      <component glyphName="glyph00052" x="0" y="0" flags="0x4"/>
      <component glyphName="glyph00053" x="0" y="0" flags="0x4"/>
      <component glyphName="glyph00054" x="0" y="0" flags="0x4"/>
      <component glyphName="glyph00055" x="0" y="0" flags="0x4"/>
      <component glyphName="glyph00056" x="0" y="0" flags="0x4"/>
      <component glyphName="glyph00057" x="0" y="0" flags="0x4"/>
      <component glyphName="glyph00058" x="0" y="0" flags="0x4"/>
    </TTGlyph>
    <TTGlyph name="a" xMin="43" yMin="-60" xMax="476" yMax="710">
      <component glyphName="glyph00059" x="0" y="0" flags="0x204"/>
      <component glyphName="glyph00061" x="0" y="0" flags="0x4"/>
      <component glyphName="glyph00062" x="0" y="0" flags="0x4"/>
      <component glyphName="glyph00063" x="0" y="0" flags="0x4"/>
      <component glyphName="glyph00064" x="0" y="0" flags="0x4"/>
      <component glyphName="glyph00065" x="0" y="0" flags="0x4"/>
      <component glyphName="glyph00066" x="0" y="0" flags="0x4"/>
      <component glyphName="glyph00067" x="0" y="0" flags="0x4"/>
    </TTGlyph>
    <TTGlyph name="b" xMin="43" yMin="-50" xMax="476" yMax="850">
      <component glyphName="glyph00068" x="0" y="0" flags="0x204"/>
      <component glyphName="glyph00070" x="0" y="0" flags="0x4"/>
      <component glyphName="glyph00071" x="0" y="0" flags="0x4"/>
      <component glyphName="glyph00072" x="0" y="0" flags="0x4"/>
      <component glyphName="glyph00073" x="0" y="0" flags="0x4"/>
      <component glyphName="glyph00074" x="0" y="0" flags="0x4"/>
    </TTGlyph>
    <TTGlyph name="glyph00005" xMin="130" yMin="-50" xMax="563" yMax="900">
      <contour>
        <pt x="390" y="100" on="1"/>
        <pt x="303" y="50" on="1"/>
        <pt x="303" y="150" on="1"/>
        <pt x="390" y="200" on="1"/>
        <pt x="390" y="300" on="1"/>
        <pt x="303" y="250" on="1"/>
        <pt x="303" y="350" on="1"/>
        <pt x="390" y="400" on="1"/>
        <pt x="390" y="500" on="1"/>
        <pt x="476" y="550" on="1"/>
        <pt x="476" y="450" on="1"/>
        <pt x="563" y="500" on="1"/>
        <pt x="563" y="400" on="1"/>
        <pt x="476" y="350" on="1"/>
        <pt x="476" y="250" on="1"/>
        <pt x="563" y="300" on="1"/>
        <pt x="563" y="200" on="1"/>
        <pt x="476" y="150" on="1"/>
        <pt x="476" y="250" on="1"/>
        <pt x="390" y="200" on="1"/>
      </contour>
      <contour>
        <pt x="217" y="0" on="1"/>
        <pt x="130" y="-50" on="1"/>
        <pt x="130" y="50" on="1"/>
        <pt x="217" y="100" on="1"/>
      </contour>
      <contour>
        <pt x="217" y="200" on="1"/>
        <pt x="303" y="250" on="1"/>
        <pt x="303" y="150" on="1"/>
        <pt x="217" y="100" on="1"/>
      </contour>
      <contour>
        <pt x="217" y="300" on="1"/>
        <pt x="217" y="200" on="1"/>
        <pt x="130" y="150" on="1"/>
        <pt x="130" y="250" on="1"/>
      </contour>
      <contour>
        <pt x="217" y="400" on="1"/>
        <pt x="303" y="450" on="1"/>
        <pt x="303" y="350" on="1"/>
        <pt x="217" y="300" on="1"/>
      </contour>
      <contour>
        <pt x="217" y="500" on="1"/>
        <pt x="217" y="400" on="1"/>
        <pt x="130" y="350" on="1"/>
        <pt x="130" y="450" on="1"/>
      </contour>
      <contour>
        <pt x="217" y="600" on="1"/>
        <pt x="303" y="650" on="1"/>
        <pt x="303" y="550" on="1"/>
        <pt x="217" y="500" on="1"/>
      </contour>
      <contour>
        <pt x="390" y="700" on="1"/>
        <pt x="303" y="650" on="1"/>
        <pt x="303" y="750" on="1"/>
        <pt x="390" y="800" on="1"/>
      </contour>
      <contour>
        <pt x="303" y="550" on="1"/>
        <pt x="390" y="600" on="1"/>
        <pt x="390" y="500" on="1"/>
        <pt x="303" y="450" on="1"/>
      </contour>
      <contour>
        <pt x="390" y="700" on="1"/>
        <pt x="476" y="750" on="1"/>
        <pt x="476" y="650" on="1"/>
        <pt x="390" y="600" on="1"/>
      </contour>
      <contour>
        <pt x="563" y="800" on="1"/>
        <pt x="476" y="750" on="1"/>
        <pt x="476" y="850" on="1"/>
        <pt x="563" y="900" on="1"/>
      </contour>
      <contour>
        <pt x="563" y="600" on="1"/>
        <pt x="476" y="550" on="1"/>
        <pt x="476" y="650" on="1"/>
        <pt x="563" y="700" on="1"/>
      </contour>
      <contour>
        <pt x="476" y="450" on="1"/>
        <pt x="390" y="400" on="1"/>
        <pt x="390" y="300" on="1"/>
        <pt x="476" y="350" on="1"/>
      </contour>
      <contour>
        <pt x="217" y="600" on="1"/>
        <pt x="130" y="550" on="1"/>
        <pt x="130" y="650" on="1"/>
        <pt x="217" y="700" on="1"/>
      </contour>
    </TTGlyph>
    <TTGlyph name="glyph00006" xMin="125" yMin="550" xMax="217" yMax="700">
      <contour>
        <pt x="130" y="550" on="1"/>
        <pt x="126" y="590" on="0"/>
        <pt x="125" y="634" on="0"/>
        <pt x="125" y="653" on="1"/>
        <pt x="141" y="662" on="0"/>
        <pt x="180" y="684" on="0"/>
        <pt x="217" y="700" on="1"/>
        <pt x="188" y="679" on="0"/>
        <pt x="151" y="656" on="0"/>
        <pt x="135" y="647" on="1"/>
        <pt x="135" y="628" on="0"/>
        <pt x="134" y="585" on="0"/>
      </contour>
    </TTGlyph>
    <TTGlyph name="glyph00007" xMin="390" yMin="150" xMax="476" yMax="300">
      <contour>
        <pt x="476" y="250" on="1"/>
        <pt x="476" y="150" on="1"/>
        <pt x="390" y="200" on="1"/>
        <pt x="390" y="300" on="1"/>
      </contour>
    </TTGlyph>
    <TTGlyph name="glyph00008" xMin="390" yMin="250" xMax="563" yMax="350">
      <contour>
        <pt x="563" y="300" on="1"/>
        <pt x="476" y="250" on="1"/>
        <pt x="390" y="300" on="1"/>
        <pt x="476" y="350" on="1"/>
      </contour>
    </TTGlyph>
    <TTGlyph name="glyph00009" xMin="390" yMin="350" xMax="476" yMax="500">
      <contour>
        <pt x="476" y="450" on="1"/>
        <pt x="476" y="350" on="1"/>
        <pt x="390" y="400" on="1"/>
        <pt x="390" y="500" on="1"/>
      </contour>
    </TTGlyph>
    <TTGlyph name="glyph00010" xMin="303" yMin="500" xMax="476" yMax="600">
      <contour>
        <pt x="476" y="550" on="1"/>
        <pt x="390" y="500" on="1"/>
        <pt x="303" y="550" on="1"/>
        <pt x="390" y="600" on="1"/>
      </contour>
    </TTGlyph>
    <TTGlyph name="glyph00011" xMin="303" yMin="400" xMax="390" yMax="550">
      <contour>
        <pt x="390" y="500" on="1"/>
        <pt x="390" y="400" on="1"/>
        <pt x="303" y="450" on="1"/>
        <pt x="303" y="550" on="1"/>
      </contour>
    </TTGlyph>
    <TTGlyph name="glyph00012" xMin="303" yMin="200" xMax="390" yMax="350">
      <contour>
        <pt x="390" y="300" on="1"/>
        <pt x="390" y="200" on="1"/>
        <pt x="303" y="250" on="1"/>
        <pt x="303" y="350" on="1"/>
      </contour>
    </TTGlyph>
    <TTGlyph name="glyph00013" xMin="43" yMin="50" xMax="217" yMax="150">
      <contour>
        <pt x="217" y="100" on="1"/>
        <pt x="130" y="50" on="1"/>
        <pt x="43" y="100" on="1"/>
        <pt x="130" y="150" on="1"/>
      </contour>
    </TTGlyph>
    <TTGlyph name="glyph00014" xMin="130" yMin="200" xMax="303" yMax="300">
      <contour>
        <pt x="303" y="250" on="1"/>
        <pt x="217" y="200" on="1"/>
        <pt x="130" y="250" on="1"/>
        <pt x="217" y="300" on="1"/>
      </contour>
    </TTGlyph>
    <TTGlyph name="glyph00015" xMin="130" yMin="100" xMax="217" yMax="250">
      <contour>
        <pt x="217" y="200" on="1"/>
        <pt x="217" y="100" on="1"/>
        <pt x="130" y="150" on="1"/>
        <pt x="130" y="250" on="1"/>
      </contour>
    </TTGlyph>
    <TTGlyph name="glyph00016" xMin="303" yMin="700" xMax="476" yMax="800">
      <contour>
        <pt x="476" y="750" on="1"/>
        <pt x="390" y="700" on="1"/>
        <pt x="303" y="750" on="1"/>
        <pt x="390" y="800" on="1"/>
      </contour>
    </TTGlyph>
    <TTGlyph name="glyph00017" xMin="303" yMin="300" xMax="476" yMax="400">
      <contour>
        <pt x="476" y="350" on="1"/>
        <pt x="390" y="300" on="1"/>
        <pt x="303" y="350" on="1"/>
        <pt x="390" y="400" on="1"/>
      </contour>
    </TTGlyph>
    <TTGlyph name="glyph00018" xMin="217" yMin="350" xMax="390" yMax="450">
      <contour>
        <pt x="390" y="400" on="1"/>
        <pt x="303" y="350" on="1"/>
        <pt x="217" y="400" on="1"/>
        <pt x="303" y="450" on="1"/>
      </contour>
    </TTGlyph>
    <TTGlyph name="glyph00019" xMin="390" yMin="450" xMax="563" yMax="550">
      <contour>
        <pt x="563" y="500" on="1"/>
        <pt x="476" y="450" on="1"/>
        <pt x="390" y="500" on="1"/>
        <pt x="476" y="550" on="1"/>
      </contour>
    </TTGlyph>
    <TTGlyph name="glyph00020" xMin="217" yMin="250" xMax="303" yMax="400">
      <contour>
        <pt x="303" y="350" on="1"/>
        <pt x="303" y="250" on="1"/>
        <pt x="217" y="300" on="1"/>
        <pt x="217" y="400" on="1"/>
      </contour>
    </TTGlyph>
    <TTGlyph name="glyph00021" xMin="43" yMin="150" xMax="130" yMax="300">
      <contour>
        <pt x="130" y="250" on="1"/>
        <pt x="130" y="150" on="1"/>
        <pt x="43" y="200" on="1"/>
        <pt x="43" y="300" on="1"/>
      </contour>
    </TTGlyph>
    <TTGlyph name="glyph00022" xMin="217" yMin="750" xMax="390" yMax="850">
      <contour>
        <pt x="390" y="800" on="1"/>
        <pt x="303" y="750" on="1"/>
        <pt x="217" y="800" on="1"/>
        <pt x="303" y="850" on="1"/>
      </contour>
    </TTGlyph>
    <TTGlyph name="glyph00023" xMin="217" yMin="550" xMax="390" yMax="650">
      <contour>
        <pt x="390" y="600" on="1"/>
        <pt x="303" y="550" on="1"/>
        <pt x="217" y="600" on="1"/>
        <pt x="303" y="650" on="1"/>
      </contour>
    </TTGlyph>
    <TTGlyph name="glyph00024" xMin="217" yMin="450" xMax="303" yMax="600">
      <contour>
        <pt x="303" y="550" on="1"/>
        <pt x="303" y="450" on="1"/>
        <pt x="217" y="500" on="1"/>
        <pt x="217" y="600" on="1"/>
      </contour>
    </TTGlyph>
    <TTGlyph name="glyph00025" xMin="303" yMin="600" xMax="390" yMax="750">
      <contour>
        <pt x="390" y="700" on="1"/>
        <pt x="390" y="600" on="1"/>
        <pt x="303" y="650" on="1"/>
        <pt x="303" y="750" on="1"/>
      </contour>
    </TTGlyph>
    <TTGlyph name="glyph00026" xMin="43" yMin="250" xMax="217" yMax="350">
      <contour>
        <pt x="217" y="300" on="1"/>
        <pt x="130" y="250" on="1"/>
        <pt x="43" y="300" on="1"/>
        <pt x="130" y="350" on="1"/>
      </contour>
    </TTGlyph>
    <TTGlyph name="glyph00027" xMin="130" yMin="400" xMax="303" yMax="500">
      <contour>
        <pt x="303" y="450" on="1"/>
        <pt x="217" y="400" on="1"/>
        <pt x="130" y="450" on="1"/>
        <pt x="217" y="500" on="1"/>
      </contour>
    </TTGlyph>
    <TTGlyph name="glyph00028" xMin="130" yMin="300" xMax="217" yMax="450">
      <contour>
        <pt x="217" y="400" on="1"/>
        <pt x="217" y="300" on="1"/>
        <pt x="130" y="350" on="1"/>
        <pt x="130" y="450" on="1"/>
      </contour>
    </TTGlyph>
    <TTGlyph name="glyph00029" xMin="130" yMin="600" xMax="303" yMax="700">
      <contour>
        <pt x="303" y="650" on="1"/>
        <pt x="217" y="600" on="1"/>
        <pt x="130" y="650" on="1"/>
        <pt x="217" y="700" on="1"/>
      </contour>
    </TTGlyph>
    <TTGlyph name="glyph00030" xMin="217" yMin="150" xMax="390" yMax="250">
      <contour>
        <pt x="390" y="200" on="1"/>
        <pt x="303" y="150" on="1"/>
        <pt x="217" y="200" on="1"/>
        <pt x="303" y="250" on="1"/>
      </contour>
    </TTGlyph>
    <TTGlyph name="glyph00031" xMin="130" yMin="500" xMax="217" yMax="650">
      <contour>
        <pt x="217" y="600" on="1"/>
        <pt x="217" y="500" on="1"/>
        <pt x="130" y="550" on="1"/>
        <pt x="130" y="650" on="1"/>
      </contour>
    </TTGlyph>
    <TTGlyph name="glyph00032" xMin="217" yMin="650" xMax="303" yMax="800">
      <contour>
        <pt x="303" y="750" on="1"/>
        <pt x="303" y="650" on="1"/>
        <pt x="217" y="700" on="1"/>
        <pt x="217" y="800" on="1"/>
      </contour>
    </TTGlyph>
    <TTGlyph name="glyph00033" xMin="43" yMin="450" xMax="217" yMax="550">
      <contour>
        <pt x="217" y="500" on="1"/>
        <pt x="130" y="450" on="1"/>
        <pt x="43" y="500" on="1"/>
        <pt x="130" y="550" on="1"/>
      </contour>
    </TTGlyph>
    <TTGlyph name="glyph00034" xMin="43" yMin="350" xMax="130" yMax="500">
      <contour>
        <pt x="130" y="450" on="1"/>
        <pt x="130" y="350" on="1"/>
        <pt x="43" y="400" on="1"/>
        <pt x="43" y="500" on="1"/>
      </contour>
    </TTGlyph>
    <TTGlyph name="glyph00035" xMin="43" yMin="650" xMax="217" yMax="750">
      <contour>
        <pt x="217" y="700" on="1"/>
        <pt x="130" y="650" on="1"/>
        <pt x="43" y="700" on="1"/>
        <pt x="130" y="750" on="1"/>
      </contour>
    </TTGlyph>
    <TTGlyph name="glyph00036" xMin="43" yMin="550" xMax="130" yMax="700">
      <contour>
        <pt x="130" y="650" on="1"/>
        <pt x="130" y="550" on="1"/>
        <pt x="43" y="600" on="1"/>
        <pt x="43" y="700" on="1"/>
      </contour>
    </TTGlyph>
    <TTGlyph name="glyph00037" xMin="217" yMin="50" xMax="303" yMax="200">
      <contour>
        <pt x="303" y="150" on="1"/>
        <pt x="303" y="50" on="1"/>
        <pt x="217" y="100" on="1"/>
        <pt x="217" y="200" on="1"/>
      </contour>
    </TTGlyph>
    <TTGlyph name="glyph00038" xMin="43" yMin="-50" xMax="130" yMax="100">
      <contour>
        <pt x="130" y="50" on="1"/>
        <pt x="130" y="-50" on="1"/>
        <pt x="43" y="0" on="1"/>
        <pt x="43" y="100" on="1"/>
      </contour>
    </TTGlyph>
    <TTGlyph name="glyph00039" xMin="390" yMin="850" xMax="563" yMax="950">
      <contour>
        <pt x="563" y="900" on="1"/>
        <pt x="476" y="850" on="1"/>
        <pt x="390" y="900" on="1"/>
        <pt x="476" y="950" on="1"/>
      </contour>
    </TTGlyph>
    <TTGlyph name="glyph00040" xMin="390" yMin="750" xMax="476" yMax="900">
      <contour>
        <pt x="476" y="850" on="1"/>
        <pt x="476" y="750" on="1"/>
        <pt x="390" y="800" on="1"/>
        <pt x="390" y="900" on="1"/>
      </contour>
    </TTGlyph>
    <TTGlyph name="glyph00041" xMin="390" yMin="650" xMax="563" yMax="750">
      <contour>
        <pt x="563" y="700" on="1"/>
        <pt x="476" y="650" on="1"/>
        <pt x="390" y="700" on="1"/>
        <pt x="476" y="750" on="1"/>
      </contour>
    </TTGlyph>
    <TTGlyph name="glyph00042" xMin="390" yMin="550" xMax="476" yMax="700">
      <contour>
        <pt x="476" y="650" on="1"/>
        <pt x="476" y="550" on="1"/>
        <pt x="390" y="600" on="1"/>
        <pt x="390" y="700" on="1"/>
      </contour>
    </TTGlyph>
    <TTGlyph name="glyph00043" xMin="130" yMin="-50" xMax="520" yMax="885">
      <contour>
        <pt x="217" y="740" on="1"/>
        <pt x="433" y="865" on="1"/>
        <pt x="467" y="885" on="0"/>
        <pt x="520" y="855" on="0"/>
        <pt x="520" y="815" on="1"/>
        <pt x="520" y="175" on="1"/>
        <pt x="433" y="125" on="1"/>
        <pt x="433" y="325" on="1"/>
        <pt x="217" y="200" on="1"/>
        <pt x="217" y="0" on="1"/>
        <pt x="130" y="-50" on="1"/>
        <pt x="130" y="590" on="1"/>
        <pt x="130" y="617" on="0"/>
        <pt x="154" y="676" on="0"/>
        <pt x="194" y="727" on="0"/>
      </contour>
      <contour>
        <pt x="433" y="425" on="1"/>
        <pt x="433" y="765" on="1"/>
        <pt x="217" y="640" on="1"/>
        <pt x="217" y="300" on="1"/>
      </contour>
    </TTGlyph>
    <TTGlyph name="glyph00044" xMin="125" yMin="150" xMax="438" yMax="865">
      <contour>
        <pt x="433" y="665" on="1"/>
        <pt x="430" y="607" on="0"/>
        <pt x="428" y="523" on="0"/>
        <pt x="428" y="458" on="0"/>
        <pt x="428" y="428" on="1"/>
        <pt x="401" y="412" on="0"/>
        <pt x="343" y="378" on="0"/>
        <pt x="268" y="333" on="0"/>
        <pt x="217" y="300" on="1"/>
        <pt x="273" y="330" on="0"/>
        <pt x="352" y="373" on="0"/>
        <pt x="411" y="406" on="0"/>
        <pt x="438" y="422" on="1"/>
        <pt x="438" y="452" on="0"/>
        <pt x="438" y="517" on="0"/>
        <pt x="436" y="604" on="0"/>
      </contour>
      <contour>
        <pt x="433" y="865" on="1"/>
        <pt x="376" y="835" on="0"/>
        <pt x="297" y="792" on="0"/>
        <pt x="238" y="759" on="0"/>
        <pt x="211" y="743" on="1"/>
        <pt x="188" y="730" on="0"/>
        <pt x="149" y="679" on="0"/>
        <pt x="125" y="620" on="0"/>
        <pt x="125" y="593" on="1"/>
        <pt x="125" y="538" on="0"/>
        <pt x="125" y="419" on="0"/>
        <pt x="127" y="262" on="0"/>
        <pt x="130" y="150" on="1"/>
        <pt x="133" y="259" on="0"/>
        <pt x="135" y="413" on="0"/>
        <pt x="135" y="532" on="0"/>
        <pt x="135" y="587" on="1"/>
        <pt x="135" y="614" on="0"/>
        <pt x="159" y="673" on="0"/>
        <pt x="199" y="724" on="0"/>
        <pt x="222" y="737" on="1"/>
        <pt x="249" y="753" on="0"/>
        <pt x="307" y="787" on="0"/>
        <pt x="381" y="832" on="0"/>
      </contour>
    </TTGlyph>
    <TTGlyph name="glyph00045" xMin="346" yMin="125" xMax="433" yMax="375">
      <contour>
        <pt x="433" y="325" on="1"/>
        <pt x="433" y="125" on="1"/>
        <pt x="346" y="175" on="1"/>
        <pt x="346" y="375" on="1"/>
      </contour>
    </TTGlyph>
    <TTGlyph name="glyph00046" xMin="346" yMin="425" xMax="433" yMax="815">
      <contour>
        <pt x="433" y="765" on="1"/>
        <pt x="433" y="425" on="1"/>
        <pt x="346" y="475" on="1"/>
        <pt x="346" y="815" on="1"/>
      </contour>
    </TTGlyph>
    <TTGlyph name="glyph00047" xMin="130" yMin="300" xMax="433" yMax="475">
      <contour>
        <pt x="433" y="425" on="1"/>
        <pt x="217" y="300" on="1"/>
        <pt x="130" y="350" on="1"/>
        <pt x="346" y="475" on="1"/>
      </contour>
    </TTGlyph>
    <TTGlyph name="glyph00048" xMin="43" yMin="-50" xMax="494" yMax="935">
      <contour>
        <pt x="494" y="870" on="1"/>
        <pt x="467" y="885" on="0"/>
        <pt x="433" y="865" on="1"/>
        <pt x="217" y="740" on="1"/>
        <pt x="194" y="727" on="0"/>
        <pt x="154" y="676" on="0"/>
        <pt x="130" y="617" on="0"/>
        <pt x="130" y="590" on="1"/>
        <pt x="130" y="-50" on="1"/>
        <pt x="43" y="0" on="1"/>
        <pt x="43" y="640" on="1"/>
        <pt x="43" y="667" on="0"/>
        <pt x="67" y="726" on="0"/>
        <pt x="107" y="777" on="0"/>
        <pt x="130" y="790" on="1"/>
        <pt x="346" y="915" on="1"/>
        <pt x="381" y="935" on="0"/>
        <pt x="407" y="920" on="1"/>
      </contour>
    </TTGlyph>
    <TTGlyph name="glyph00049" xMin="130" yMin="-50" xMax="528" yMax="890">
      <contour>
        <pt x="442" y="870" on="1"/>
        <pt x="476" y="890" on="0"/>
        <pt x="528" y="860" on="0"/>
        <pt x="528" y="820" on="1"/>
        <pt x="528" y="680" on="1"/>
        <pt x="528" y="654" on="0"/>
        <pt x="504" y="594" on="0"/>
        <pt x="465" y="543" on="0"/>
        <pt x="442" y="530" on="1"/>
        <pt x="476" y="550" on="0"/>
        <pt x="528" y="520" on="0"/>
        <pt x="528" y="480" on="1"/>
        <pt x="528" y="280" on="1"/>
        <pt x="528" y="253" on="0"/>
        <pt x="504" y="194" on="0"/>
        <pt x="465" y="143" on="0"/>
        <pt x="442" y="130" on="1"/>
        <pt x="303" y="50" on="1"/>
        <pt x="269" y="30" on="0"/>
        <pt x="217" y="60" on="0"/>
        <pt x="217" y="100" on="1"/>
        <pt x="217" y="0" on="1"/>
        <pt x="130" y="-50" on="1"/>
        <pt x="130" y="690" on="1"/>
      </contour>
      <contour>
        <pt x="442" y="530" on="1"/>
        <pt x="442" y="770" on="1"/>
        <pt x="217" y="640" on="1"/>
        <pt x="217" y="400" on="1"/>
      </contour>
      <contour>
        <pt x="442" y="430" on="1"/>
        <pt x="217" y="300" on="1"/>
        <pt x="217" y="100" on="1"/>
        <pt x="442" y="230" on="1"/>
      </contour>
    </TTGlyph>
    <TTGlyph name="glyph00050" xMin="125" yMin="100" xMax="447" yMax="870">
      <contour>
        <pt x="442" y="770" on="1"/>
        <pt x="439" y="712" on="0"/>
        <pt x="437" y="628" on="0"/>
        <pt x="436" y="563" on="0"/>
        <pt x="436" y="533" on="1"/>
        <pt x="408" y="517" on="0"/>
        <pt x="348" y="481" on="0"/>
        <pt x="270" y="434" on="0"/>
        <pt x="217" y="400" on="1"/>
        <pt x="275" y="431" on="0"/>
        <pt x="357" y="476" on="0"/>
        <pt x="419" y="511" on="0"/>
        <pt x="447" y="527" on="1"/>
        <pt x="447" y="557" on="0"/>
        <pt x="446" y="622" on="0"/>
        <pt x="444" y="709" on="0"/>
      </contour>
      <contour>
        <pt x="442" y="430" on="1"/>
        <pt x="438" y="357" on="0"/>
        <pt x="436" y="271" on="0"/>
        <pt x="436" y="233" on="1"/>
        <pt x="408" y="217" on="0"/>
        <pt x="348" y="181" on="0"/>
        <pt x="270" y="134" on="0"/>
        <pt x="217" y="100" on="1"/>
        <pt x="275" y="131" on="0"/>
        <pt x="357" y="176" on="0"/>
        <pt x="419" y="211" on="0"/>
        <pt x="447" y="227" on="1"/>
        <pt x="447" y="252" on="0"/>
        <pt x="446" y="306" on="0"/>
        <pt x="444" y="379" on="0"/>
      </contour>
      <contour>
        <pt x="442" y="870" on="1"/>
        <pt x="361" y="827" on="0"/>
        <pt x="249" y="764" on="0"/>
        <pt x="164" y="716" on="0"/>
        <pt x="125" y="693" on="1"/>
        <pt x="125" y="642" on="0"/>
        <pt x="125" y="536" on="0"/>
        <pt x="126" y="410" on="0"/>
        <pt x="128" y="252" on="0"/>
        <pt x="130" y="150" on="1"/>
        <pt x="132" y="250" on="0"/>
        <pt x="134" y="406" on="0"/>
        <pt x="135" y="530" on="0"/>
        <pt x="135" y="636" on="0"/>
        <pt x="135" y="687" on="1"/>
        <pt x="174" y="710" on="0"/>
        <pt x="258" y="759" on="0"/>
        <pt x="366" y="824" on="0"/>
      </contour>
    </TTGlyph>
    <TTGlyph name="glyph00051" xMin="130" yMin="45" xMax="243" yMax="150">
      <contour>
        <pt x="217" y="100" on="1"/>
        <pt x="217" y="60" on="0"/>
        <pt x="243" y="45" on="1"/>
        <pt x="156" y="95" on="1"/>
        <pt x="130" y="110" on="0"/>
        <pt x="130" y="150" on="1"/>
      </contour>
    </TTGlyph>
    <TTGlyph name="glyph00052" xMin="355" yMin="530" xMax="502" yMax="600">
      <contour>
        <pt x="502" y="535" on="1"/>
        <pt x="476" y="550" on="0"/>
        <pt x="442" y="530" on="1"/>
        <pt x="355" y="580" on="1"/>
        <pt x="389" y="600" on="0"/>
        <pt x="416" y="585" on="1"/>
      </contour>
    </TTGlyph>
    <TTGlyph name="glyph00053" xMin="355" yMin="230" xMax="442" yMax="480">
      <contour>
        <pt x="442" y="430" on="1"/>
        <pt x="442" y="230" on="1"/>
        <pt x="355" y="280" on="1"/>
        <pt x="355" y="480" on="1"/>
      </contour>
    </TTGlyph>
    <TTGlyph name="glyph00054" xMin="130" yMin="100" xMax="442" yMax="280">
      <contour>
        <pt x="442" y="230" on="1"/>
        <pt x="217" y="100" on="1"/>
        <pt x="130" y="150" on="1"/>
        <pt x="355" y="280" on="1"/>
      </contour>
    </TTGlyph>
    <TTGlyph name="glyph00055" xMin="355" yMin="530" xMax="442" yMax="820">
      <contour>
        <pt x="442" y="770" on="1"/>
        <pt x="442" y="530" on="1"/>
        <pt x="355" y="580" on="1"/>
        <pt x="355" y="820" on="1"/>
      </contour>
    </TTGlyph>
    <TTGlyph name="glyph00056" xMin="130" yMin="400" xMax="442" yMax="580">
      <contour>
        <pt x="442" y="530" on="1"/>
        <pt x="217" y="400" on="1"/>
        <pt x="130" y="450" on="1"/>
        <pt x="355" y="580" on="1"/>
      </contour>
    </TTGlyph>
    <TTGlyph name="glyph00057" xMin="43" yMin="690" xMax="502" yMax="940">
      <contour>
        <pt x="502" y="875" on="1"/>
        <pt x="476" y="890" on="0"/>
        <pt x="442" y="870" on="1"/>
        <pt x="130" y="690" on="1"/>
        <pt x="43" y="740" on="1"/>
        <pt x="355" y="920" on="1"/>
        <pt x="389" y="940" on="0"/>
        <pt x="416" y="925" on="1"/>
      </contour>
    </TTGlyph>
    <TTGlyph name="glyph00058" xMin="43" yMin="-50" xMax="130" yMax="740">
      <contour>
        <pt x="130" y="690" on="1"/>
        <pt x="130" y="-50" on="1"/>
        <pt x="43" y="0" on="1"/>
        <pt x="43" y="740" on="1"/>
      </contour>
    </TTGlyph>
    <TTGlyph name="glyph00059" xMin="130" yMin="-60" xMax="476" yMax="660">
      <contour>
        <pt x="130" y="490" on="1"/>
        <pt x="390" y="640" on="1"/>
        <pt x="424" y="660" on="0"/>
        <pt x="476" y="630" on="0"/>
        <pt x="476" y="590" on="1"/>
        <pt x="476" y="110" on="1"/>
        <pt x="390" y="60" on="1"/>
        <pt x="390" y="160" on="1"/>
        <pt x="390" y="134" on="0"/>
        <pt x="366" y="74" on="0"/>
        <pt x="326" y="23" on="0"/>
        <pt x="303" y="10" on="1"/>
        <pt x="217" y="-40" on="1"/>
        <pt x="182" y="-60" on="0"/>
        <pt x="130" y="-30" on="0"/>
        <pt x="130" y="10" on="1"/>
        <pt x="130" y="150" on="1"/>
        <pt x="130" y="177" on="0"/>
        <pt x="154" y="236" on="0"/>
        <pt x="194" y="287" on="0"/>
        <pt x="217" y="300" on="1"/>
        <pt x="390" y="400" on="1"/>
        <pt x="390" y="540" on="1"/>
        <pt x="130" y="390" on="1"/>
      </contour>
      <contour>
        <pt x="217" y="60" on="1"/>
        <pt x="390" y="160" on="1"/>
        <pt x="390" y="300" on="1"/>
        <pt x="217" y="200" on="1"/>
      </contour>
    </TTGlyph>
    <TTGlyph name="glyph00060" xMin="125" yMin="40" xMax="395" yMax="640">
      <contour>
        <pt x="390" y="540" on="1"/>
        <pt x="386" y="490" on="0"/>
        <pt x="385" y="429" on="0"/>
        <pt x="385" y="403" on="1"/>
        <pt x="211" y="303" on="1"/>
        <pt x="188" y="290" on="0"/>
        <pt x="149" y="239" on="0"/>
        <pt x="125" y="180" on="0"/>
        <pt x="125" y="153" on="1"/>
        <pt x="125" y="132" on="0"/>
        <pt x="126" y="84" on="0"/>
        <pt x="130" y="40" on="1"/>
        <pt x="134" y="79" on="0"/>
        <pt x="135" y="126" on="0"/>
        <pt x="135" y="147" on="1"/>
        <pt x="135" y="174" on="0"/>
        <pt x="159" y="233" on="0"/>
        <pt x="199" y="284" on="0"/>
        <pt x="222" y="297" on="1"/>
        <pt x="395" y="397" on="1"/>
        <pt x="395" y="423" on="0"/>
        <pt x="394" y="485" on="0"/>
      </contour>
      <contour>
        <pt x="390" y="300" on="1"/>
        <pt x="386" y="250" on="0"/>
        <pt x="385" y="189" on="0"/>
        <pt x="385" y="163" on="1"/>
        <pt x="352" y="144" on="0"/>
        <pt x="278" y="100" on="0"/>
        <pt x="217" y="60" on="1"/>
        <pt x="262" y="84" on="0"/>
        <pt x="326" y="118" on="0"/>
        <pt x="373" y="145" on="0"/>
        <pt x="395" y="157" on="1"/>
        <pt x="395" y="183" on="0"/>
        <pt x="394" y="245" on="0"/>
      </contour>
      <contour>
        <pt x="390" y="640" on="1"/>
        <pt x="322" y="604" on="0"/>
        <pt x="228" y="552" on="0"/>
        <pt x="157" y="512" on="0"/>
        <pt x="125" y="493" on="1"/>
        <pt x="125" y="474" on="0"/>
        <pt x="126" y="430" on="0"/>
        <pt x="130" y="390" on="1"/>
        <pt x="134" y="425" on="0"/>
        <pt x="135" y="468" on="0"/>
        <pt x="135" y="487" on="1"/>
        <pt x="168" y="506" on="0"/>
        <pt x="238" y="547" on="0"/>
        <pt x="327" y="601" on="0"/>
      </contour>
    </TTGlyph>
    <TTGlyph name="glyph00061" xMin="303" yMin="400" xMax="390" yMax="590">
      <contour>
        <pt x="390" y="540" on="1"/>
        <pt x="390" y="400" on="1"/>
        <pt x="303" y="450" on="1"/>
        <pt x="303" y="590" on="1"/>
      </contour>
    </TTGlyph>
    <TTGlyph name="glyph00062" xMin="303" yMin="60" xMax="390" yMax="210">
      <contour>
        <pt x="390" y="160" on="1"/>
        <pt x="390" y="60" on="1"/>
        <pt x="303" y="110" on="1"/>
        <pt x="303" y="210" on="1"/>
      </contour>
    </TTGlyph>
    <TTGlyph name="glyph00063" xMin="303" yMin="160" xMax="390" yMax="350">
      <contour>
        <pt x="390" y="300" on="1"/>
        <pt x="390" y="160" on="1"/>
        <pt x="303" y="210" on="1"/>
        <pt x="303" y="350" on="1"/>
      </contour>
    </TTGlyph>
    <TTGlyph name="glyph00064" xMin="130" yMin="60" xMax="390" yMax="210">
      <contour>
        <pt x="390" y="160" on="1"/>
        <pt x="217" y="60" on="1"/>
        <pt x="130" y="110" on="1"/>
        <pt x="303" y="210" on="1"/>
      </contour>
    </TTGlyph>
    <TTGlyph name="glyph00065" xMin="43" yMin="-45" xMax="390" yMax="450">
      <contour>
        <pt x="390" y="400" on="1"/>
        <pt x="217" y="300" on="1"/>
        <pt x="194" y="287" on="0"/>
        <pt x="154" y="236" on="0"/>
        <pt x="130" y="177" on="0"/>
        <pt x="130" y="150" on="1"/>
        <pt x="130" y="10" on="1"/>
        <pt x="130" y="-30" on="0"/>
        <pt x="156" y="-45" on="1"/>
        <pt x="69" y="5" on="1"/>
        <pt x="43" y="20" on="0"/>
        <pt x="43" y="60" on="1"/>
        <pt x="43" y="200" on="1"/>
        <pt x="43" y="227" on="0"/>
        <pt x="67" y="286" on="0"/>
        <pt x="107" y="337" on="0"/>
        <pt x="130" y="350" on="1"/>
        <pt x="303" y="450" on="1"/>
      </contour>
    </TTGlyph>
    <TTGlyph name="glyph00066" xMin="43" yMin="490" xMax="450" yMax="710">
      <contour>
        <pt x="450" y="645" on="1"/>
        <pt x="424" y="660" on="0"/>
        <pt x="390" y="640" on="1"/>
        <pt x="130" y="490" on="1"/>
        <pt x="43" y="540" on="1"/>
        <pt x="303" y="690" on="1"/>
        <pt x="338" y="710" on="0"/>
        <pt x="364" y="695" on="1"/>
      </contour>
    </TTGlyph>
    <TTGlyph name="glyph00067" xMin="43" yMin="390" xMax="130" yMax="540">
      <contour>
        <pt x="130" y="490" on="1"/>
        <pt x="130" y="390" on="1"/>
        <pt x="43" y="440" on="1"/>
        <pt x="43" y="540" on="1"/>
      </contour>
    </TTGlyph>
    <TTGlyph name="glyph00068" xMin="130" yMin="-50" xMax="476" yMax="800">
      <contour>
        <pt x="303" y="590" on="1"/>
        <pt x="390" y="640" on="1"/>
        <pt x="424" y="660" on="0"/>
        <pt x="476" y="630" on="0"/>
        <pt x="476" y="590" on="1"/>
        <pt x="476" y="250" on="1"/>
        <pt x="476" y="224" on="0"/>
        <pt x="452" y="164" on="0"/>
        <pt x="413" y="113" on="0"/>
        <pt x="390" y="100" on="1"/>
        <pt x="130" y="-50" on="1"/>
        <pt x="130" y="750" on="1"/>
        <pt x="217" y="800" on="1"/>
        <pt x="217" y="440" on="1"/>
        <pt x="217" y="467" on="0"/>
        <pt x="241" y="526" on="0"/>
        <pt x="280" y="577" on="0"/>
      </contour>
      <contour>
        <pt x="390" y="540" on="1"/>
        <pt x="217" y="440" on="1"/>
        <pt x="217" y="100" on="1"/>
        <pt x="390" y="200" on="1"/>
      </contour>
    </TTGlyph>
    <TTGlyph name="glyph00069" xMin="125" yMin="50" xMax="395" yMax="800">
      <contour>
        <pt x="390" y="540" on="1"/>
        <pt x="387" y="457" on="0"/>
        <pt x="385" y="337" on="0"/>
        <pt x="385" y="246" on="0"/>
        <pt x="385" y="203" on="1"/>
        <pt x="352" y="184" on="0"/>
        <pt x="278" y="140" on="0"/>
        <pt x="217" y="100" on="1"/>
        <pt x="262" y="124" on="0"/>
        <pt x="326" y="158" on="0"/>
        <pt x="373" y="185" on="0"/>
        <pt x="395" y="197" on="1"/>
        <pt x="395" y="240" on="0"/>
        <pt x="394" y="332" on="0"/>
        <pt x="392" y="454" on="0"/>
      </contour>
      <contour>
        <pt x="390" y="640" on="1"/>
        <pt x="353" y="624" on="0"/>
        <pt x="314" y="602" on="0"/>
        <pt x="298" y="593" on="1"/>
        <pt x="275" y="580" on="0"/>
        <pt x="236" y="529" on="0"/>
        <pt x="214" y="468" on="0"/>
        <pt x="217" y="440" on="1"/>
        <pt x="219" y="465" on="0"/>
        <pt x="245" y="523" on="0"/>
        <pt x="285" y="574" on="0"/>
        <pt x="308" y="587" on="1"/>
        <pt x="325" y="596" on="0"/>
        <pt x="361" y="619" on="0"/>
      </contour>
      <contour>
        <pt x="217" y="800" on="1"/>
        <pt x="180" y="784" on="0"/>
        <pt x="141" y="762" on="0"/>
        <pt x="125" y="753" on="1"/>
        <pt x="125" y="687" on="0"/>
        <pt x="125" y="550" on="0"/>
        <pt x="126" y="387" on="0"/>
        <pt x="128" y="182" on="0"/>
        <pt x="130" y="50" on="1"/>
        <pt x="132" y="180" on="0"/>
        <pt x="134" y="382" on="0"/>
        <pt x="135" y="544" on="0"/>
        <pt x="135" y="681" on="0"/>
        <pt x="135" y="747" on="1"/>
        <pt x="151" y="756" on="0"/>
        <pt x="188" y="779" on="0"/>
      </contour>
    </TTGlyph>
    <TTGlyph name="glyph00070" xMin="303" yMin="200" xMax="390" yMax="590">
      <contour>
        <pt x="390" y="540" on="1"/>
        <pt x="390" y="200" on="1"/>
        <pt x="303" y="250" on="1"/>
        <pt x="303" y="590" on="1"/>
      </contour>
    </TTGlyph>
    <TTGlyph name="glyph00071" xMin="130" yMin="100" xMax="390" yMax="250">
      <contour>
        <pt x="390" y="200" on="1"/>
        <pt x="217" y="100" on="1"/>
        <pt x="130" y="150" on="1"/>
        <pt x="303" y="250" on="1"/>
      </contour>
    </TTGlyph>
    <TTGlyph name="glyph00072" xMin="130" yMin="440" xMax="450" yMax="710">
      <contour>
        <pt x="450" y="645" on="1"/>
        <pt x="424" y="660" on="0"/>
        <pt x="390" y="640" on="1"/>
        <pt x="303" y="590" on="1"/>
        <pt x="280" y="577" on="0"/>
        <pt x="241" y="526" on="0"/>
        <pt x="217" y="467" on="0"/>
        <pt x="217" y="440" on="1"/>
        <pt x="130" y="490" on="1"/>
        <pt x="130" y="517" on="0"/>
        <pt x="154" y="576" on="0"/>
        <pt x="194" y="627" on="0"/>
        <pt x="217" y="640" on="1"/>
        <pt x="303" y="690" on="1"/>
        <pt x="338" y="710" on="0"/>
        <pt x="364" y="695" on="1"/>
      </contour>
    </TTGlyph>
    <TTGlyph name="glyph00073" xMin="43" yMin="750" xMax="217" yMax="850">
      <contour>
        <pt x="217" y="800" on="1"/>
        <pt x="130" y="750" on="1"/>
        <pt x="43" y="800" on="1"/>
        <pt x="130" y="850" on="1"/>
      </contour>
    </TTGlyph>
    <TTGlyph name="glyph00074" xMin="43" yMin="-50" xMax="130" yMax="800">
      <contour>
        <pt x="130" y="750" on="1"/>
        <pt x="130" y="-50" on="1"/>
        <pt x="43" y="0" on="1"/>
        <pt x="43" y="800" on="1"/>
      </contour>
    </TTGlyph>
</ttFont>
